<svg width="52" height="52" viewBox="0 0 52 52" fill="none" xmlns="http://www.w3.org/2000/svg">
<circle r="26" transform="matrix(-1 0 0 1 26 26)" fill="#43FB5B"/>
<path d="M18.1066 31.4523L20.1419 28.8036C20.8688 27.8576 22.3346 28.006 22.8116 29.0495C23.1611 29.7695 24.0523 30.0782 24.7832 29.8123C26.4013 29.175 28.375 26.7044 28.5631 24.8931C28.7155 24.1074 28.1041 23.3367 27.3184 23.1844C26.1872 22.9922 25.6664 21.6141 26.3933 20.6681L28.4287 18.0193C29.0212 17.3462 30.0249 17.2147 30.6871 17.7236L32.4845 19.1047C34.2928 20.5695 33.1168 25.2327 29.7003 29.6788C26.2839 34.1249 22.0917 36.5457 20.1997 35.0919L18.4023 33.7107C17.7292 33.1183 17.5977 32.1145 18.1066 31.4523Z" fill="white"/>
</svg>
