<svg width="52" height="52" viewBox="0 0 52 52" fill="none" xmlns="http://www.w3.org/2000/svg">
<circle cx="26" cy="26" r="26" fill="#FF2330"/>
<path d="M18.1274 29.322L21.4679 29.3312C22.6609 29.3345 23.4398 28.0839 22.9057 27.0684C22.5498 26.3516 22.8505 25.4576 23.5078 25.0419C25.0015 24.1513 28.1632 24.1003 29.7115 25.059C30.4263 25.4189 30.6623 26.374 30.3024 27.0888C29.7627 28.1014 30.5347 29.3562 31.7278 29.3595L35.0682 29.3687C35.9631 29.3115 36.6809 28.5976 36.6832 27.7625L36.6894 25.4958C36.6362 23.1693 32.2273 21.2483 26.6202 21.2328C21.013 21.2174 16.5341 23.0542 16.5275 25.4402L16.5213 27.707C16.5785 28.6019 17.2923 29.3197 18.1274 29.322Z" fill="white"/>
</svg>
