<svg width="55" height="55" viewBox="0 0 55 55" fill="none" xmlns="http://www.w3.org/2000/svg">
<path d="M32.4531 28.8594H30.0625C29.5447 28.8594 29.125 28.4397 29.125 27.9219C29.125 27.4041 29.5447 26.9844 30.0625 26.9844H31.1571C30.4501 25.8059 29.1739 25.0625 27.744 25.0625C26.2806 25.0625 24.9376 25.8625 24.239 27.1503C23.992 27.6053 23.4229 27.7741 22.9679 27.5271C22.5127 27.2803 22.3441 26.7112 22.5909 26.2562C23.6177 24.3634 25.5923 23.1875 27.7438 23.1875C29.0252 23.1875 30.2425 23.5936 31.2639 24.3623C31.7169 24.7031 32.1171 25.1107 32.4531 25.5649V24.6406C32.4531 24.1228 32.8728 23.7031 33.3906 23.7031C33.9084 23.7031 34.3281 24.1228 34.3281 24.6406V26.9844C34.3281 28.0182 33.4869 28.8594 32.4531 28.8594ZM39.0625 31.1562C39.5803 31.1562 40 30.7366 40 30.2188V24.125C40 22.0572 38.3178 20.375 36.25 20.375H34.8269C34.4254 20.375 34.0687 20.1196 33.9392 19.7396L33.6556 18.9061C33.2676 17.7661 32.1977 17 30.9932 17H25.004C23.8228 17 22.7597 17.7463 22.3587 18.8572L22.0341 19.7559C21.9004 20.1262 21.5461 20.375 21.1522 20.375H19.75C17.6822 20.375 16 22.0572 16 24.125V34.9062C16 36.9741 17.6822 38.6562 19.75 38.6562H36.25C38.3178 38.6562 40 36.9741 40 34.9062C40 34.3884 39.5803 33.9688 39.0625 33.9688C38.5447 33.9688 38.125 34.3884 38.125 34.9062C38.125 35.9401 37.2838 36.7812 36.25 36.7812H19.75C18.7162 36.7812 17.875 35.9401 17.875 34.9062V24.125C17.875 23.0912 18.7162 22.25 19.75 22.25H21.1522C22.3334 22.25 23.3965 21.5037 23.7975 20.3928L24.1222 19.4941C24.2559 19.1238 24.6102 18.875 25.004 18.875H30.9932C31.3946 18.875 31.7513 19.1302 31.8807 19.5104L32.1644 20.3439C32.5526 21.4839 33.6224 22.25 34.8269 22.25H36.25C37.2838 22.25 38.125 23.0912 38.125 24.125V30.2188C38.125 30.7366 38.5447 31.1562 39.0625 31.1562ZM26.7344 30.3594C26.7344 29.8416 26.3147 29.4219 25.7969 29.4219H23.4062C22.3724 29.4219 21.5312 30.2631 21.5312 31.2969V33.6406C21.5312 34.1584 21.9509 34.5781 22.4688 34.5781C22.9866 34.5781 23.4062 34.1584 23.4062 33.6406V32.7046C23.7441 33.1636 24.1473 33.5753 24.6041 33.9189C25.6257 34.6876 26.8428 35.0938 28.124 35.0938C30.2756 35.0938 32.2502 33.9178 33.2771 32.0253C33.5241 31.5701 33.3553 31.001 32.9001 30.7542C32.4451 30.5071 31.876 30.676 31.6292 31.1312C30.9304 32.4188 29.5873 33.2188 28.124 33.2188C26.6941 33.2188 25.4178 32.4753 24.7109 31.2969H25.7969C26.3147 31.2969 26.7344 30.8772 26.7344 30.3594Z" fill="white"/>
</svg>
