<svg width="26" height="26" viewBox="0 0 26 26" fill="none" xmlns="http://www.w3.org/2000/svg">
<g clip-path="url(#clip0_1_32)">
<path d="M5.60773 15.2899L4.72696 18.578L1.50776 18.6461C0.545699 16.8616 0 14.82 0 12.6505C0 10.5525 0.510216 8.57414 1.41461 6.83212H1.4153L4.28128 7.35756L5.53676 10.2063C5.27399 10.9724 5.13077 11.7948 5.13077 12.6505C5.13087 13.5792 5.2991 14.469 5.60773 15.2899Z" fill="#FBBB00"/>
<path d="M25.0821 10.2872C25.2274 11.0525 25.3032 11.8429 25.3032 12.6507C25.3032 13.5565 25.2079 14.44 25.0265 15.2922C24.4106 18.1924 22.8013 20.7248 20.572 22.5169L20.5714 22.5162L16.9615 22.332L16.4506 19.1426C17.9298 18.2751 19.0859 16.9175 19.6948 15.2922H12.9297V10.2872H19.7935H25.0821Z" fill="#518EF8"/>
<path d="M20.5714 22.5171L20.5721 22.5178C18.404 24.2605 15.6498 25.3032 12.6517 25.3032C7.83361 25.3032 3.6447 22.6103 1.50781 18.6472L5.60777 15.2911C6.67619 18.1426 9.42688 20.1724 12.6517 20.1724C14.0377 20.1724 15.3363 19.7977 16.4506 19.1436L20.5714 22.5171Z" fill="#28B446"/>
<path d="M20.727 2.91224L16.6285 6.26768C15.4752 5.54684 14.112 5.13042 12.6515 5.13042C9.35378 5.13042 6.55165 7.25337 5.53675 10.2071L1.41524 6.83285H1.41455C3.52015 2.77322 7.7619 -0.000396729 12.6515 -0.000396729C15.7213 -0.000396729 18.5359 1.09308 20.727 2.91224Z" fill="#F14336"/>
</g>
<defs>
<clipPath id="clip0_1_32">
<rect width="25.3032" height="25.3032" rx="4" fill="white"/>
</clipPath>
</defs>
</svg>
