<svg width="55" height="55" viewBox="0 0 55 55" fill="none" xmlns="http://www.w3.org/2000/svg">
<path d="M18.9756 25.5315V27.3169C18.9756 28.8757 19.3711 30.2804 20.1605 31.5316L21.4649 30.2272C20.9958 29.3527 20.7607 28.3828 20.7607 27.3172V25.5318C20.7607 25.2905 20.6721 25.0813 20.4957 24.9042C20.3189 24.7276 20.1098 24.6395 19.8681 24.6395C19.6263 24.6395 19.4171 24.7276 19.2405 24.9042C19.0637 25.081 18.9756 25.2902 18.9756 25.5315Z" fill="white"/>
<path d="M31.4718 20.1777C31.4718 18.9504 31.0346 17.8999 30.1609 17.0257C29.2866 16.1517 28.236 15.7147 27.0087 15.7147C25.7814 15.7147 24.7306 16.1517 23.8569 17.0254C22.9829 17.8999 22.5459 18.9502 22.5459 20.1775V27.3182C22.5459 27.8738 22.6401 28.3909 22.8192 28.8741L31.4715 20.2217V20.1778H31.4718V20.1777Z" fill="white"/>
<path d="M30.1605 30.4702C31.0342 29.5965 31.4715 28.5454 31.4715 27.3181V25.5493L25.4971 31.5235C25.9677 31.6917 26.47 31.7806 27.0084 31.7806C28.2358 31.7809 29.2863 31.3444 30.1605 30.4702Z" fill="white"/>
<path d="M34.1485 24.6395C33.9066 24.6395 33.6975 24.7276 33.5209 24.9042C33.3441 25.0813 33.256 25.2905 33.256 25.5318V27.3172C33.256 29.0374 32.6444 30.5089 31.4221 31.7315C30.1993 32.954 28.7279 33.5651 27.0078 33.5651C25.9583 33.5651 25.0019 33.3363 24.1378 32.8813L22.8303 34.1887C23.809 34.7907 24.9035 35.1604 26.1153 35.2942V37.1356H22.5449C22.3031 37.1356 22.0939 37.2233 21.9173 37.4003C21.7405 37.5769 21.6523 37.786 21.6523 38.0279C21.6523 38.2692 21.7405 38.4784 21.9173 38.6555C22.0939 38.832 22.3031 38.9202 22.5449 38.9202H31.4708C31.7124 38.9202 31.9216 38.832 32.0984 38.6555C32.2749 38.4785 32.3633 38.2692 32.3633 38.0279C32.3633 37.786 32.2749 37.5769 32.0984 37.4003C31.9216 37.2233 31.7124 37.1356 31.4708 37.1356H27.9003V35.2942C29.9177 35.0714 31.6122 34.1997 32.9839 32.6793C34.3552 31.1594 35.041 29.372 35.041 27.3169V25.5315C35.041 25.2902 34.9527 25.081 34.7761 24.9039C34.5993 24.7276 34.3901 24.6395 34.1485 24.6395Z" fill="white"/>
<path d="M35.0359 17.5448L31.4712 21.1095L23.0993 29.4812L21.8002 30.7803L20.5219 32.0586L17.2048 35.376C16.7143 35.8662 16.7143 36.6613 17.2048 37.1515C17.4497 37.3969 17.7714 37.5195 18.0926 37.5195C18.4138 37.5195 18.7355 37.3969 18.9804 37.1515L22.3 33.8319L23.5818 32.5501L24.8822 31.2497L31.4712 24.661L36.8117 19.3204C37.3022 18.8302 37.3022 18.0351 36.8117 17.5448C36.3215 17.0543 35.5259 17.0543 35.0359 17.5448Z" fill="white"/>
</svg>
