<svg width="206" height="157" viewBox="0 0 206 157" fill="none" xmlns="http://www.w3.org/2000/svg">
<path d="M32.52 100.52C32.2533 101.08 31.9067 101.587 31.48 102.04C31.08 102.467 30.5333 102.64 29.84 102.56C29.1467 102.507 28.6133 102.253 28.24 101.8C27.8933 101.347 27.6 100.84 27.36 100.28C27.2267 99.9867 27.1333 99.6933 27.08 99.4C27.0533 99.08 27.1067 98.7733 27.24 98.48C27.5333 97.9467 27.7333 97.4 27.84 96.84C27.9733 96.28 27.9733 95.76 27.84 95.28C27.7333 94.8 27.4667 94.3867 27.04 94.04C26.64 93.6667 26.0533 93.4 25.28 93.24C24.3733 93.08 23.48 93.1067 22.6 93.32C21.7467 93.5067 20.9867 93.8533 20.32 94.36C19.6533 94.8667 19.1067 95.5067 18.68 96.28C18.2533 97.0533 18.0267 97.9067 18 98.84C17.9733 99.64 18.08 100.387 18.32 101.08C18.56 101.747 18.8933 102.387 19.32 103C19.7467 103.587 20.2267 104.147 20.76 104.68C21.2933 105.187 21.8533 105.68 22.44 106.16C23.5333 107.013 24.4533 108.013 25.2 109.16C25.9733 110.307 26.5467 111.547 26.92 112.88C27.3467 114.453 27.4667 116.04 27.28 117.64C27.0933 119.213 26.6533 120.693 25.96 122.08C25.2667 123.467 24.3333 124.693 23.16 125.76C22.0133 126.853 20.68 127.693 19.16 128.28C17.6133 128.893 15.9867 129.227 14.28 129.28C12.6 129.333 10.9733 129.12 9.4 128.64C7.85333 128.187 6.41333 127.467 5.08 126.48C3.74667 125.493 2.66667 124.24 1.84 122.72C0.906667 120.96 0.36 119.067 0.2 117.04C0.0666667 115.013 0.333333 113.067 1 111.2C1.29333 110.4 1.65333 109.573 2.08 108.72C2.50667 107.867 3.08 107.2 3.8 106.72C4.12 106.507 4.48 106.347 4.88 106.24C5.28 106.133 5.66667 106.093 6.04 106.12C6.44 106.147 6.8 106.253 7.12 106.44C7.46667 106.627 7.76 106.893 8 107.24C8.26667 107.64 8.41333 108.133 8.44 108.72C8.49333 109.28 8.48 109.787 8.4 110.24C8.34667 110.613 8.24 110.947 8.08 111.24C7.92 111.507 7.73333 111.813 7.52 112.16C7.33333 112.48 7.13333 112.88 6.92 113.36C6.70667 113.84 6.52 114.453 6.36 115.2C6.17333 116.08 6.09333 116.987 6.12 117.92C6.14667 118.853 6.29333 119.76 6.56 120.64C6.82667 121.493 7.22667 122.28 7.76 123C8.29333 123.72 8.97333 124.32 9.8 124.8C10.84 125.413 11.9867 125.787 13.24 125.92C14.4933 126.053 15.6933 125.973 16.84 125.68C17.64 125.493 18.36 125.187 19 124.76C19.6667 124.333 20.24 123.827 20.72 123.24C21.2267 122.653 21.6133 122 21.88 121.28C22.1733 120.533 22.3333 119.747 22.36 118.92C22.4133 117.533 22.1333 116.213 21.52 114.96C20.9333 113.707 20.1333 112.627 19.12 111.72C18.5067 111.187 17.92 110.653 17.36 110.12C16.8 109.587 16.2667 109.027 15.76 108.44C15.28 107.853 14.84 107.227 14.44 106.56C14.04 105.867 13.6933 105.08 13.4 104.2C13.16 103.293 13.0267 102.36 13 101.4C13 100.44 13.0933 99.5067 13.28 98.6C13.4933 97.6933 13.8133 96.8267 14.24 96C14.6667 95.1467 15.2 94.36 15.84 93.64C16.96 92.3867 18.24 91.48 19.68 90.92C21.1467 90.3333 22.6933 89.9867 24.32 89.88C25.2533 89.8267 26.1867 89.8933 27.12 90.08C28.0533 90.24 28.9067 90.5333 29.68 90.96C30.48 91.3867 31.1733 91.9467 31.76 92.64C32.3467 93.3333 32.7733 94.1733 33.04 95.16C33.28 96.0667 33.3467 96.9733 33.24 97.88C33.1333 98.7867 32.8933 99.6667 32.52 100.52ZM41.9941 104.12C42.7141 104.013 43.3941 104.013 44.0341 104.12C44.6741 104.227 45.2607 104.4 45.7941 104.64C46.3274 104.88 46.7941 105.173 47.1941 105.52C47.5941 105.867 47.9141 106.2 48.1541 106.52C48.6341 106.52 49.1141 106.613 49.5941 106.8C50.1007 106.987 50.5274 107.24 50.8741 107.56C51.2474 107.853 51.5141 108.2 51.6741 108.6C51.8607 109 51.8607 109.4 51.6741 109.8C51.4607 110.28 51.2341 110.853 50.9941 111.52C50.7807 112.187 50.5807 112.893 50.3941 113.64C50.2341 114.36 50.1007 115.08 49.9941 115.8C49.9141 116.493 49.8874 117.133 49.9141 117.72C49.9674 118.28 50.0741 118.733 50.2341 119.08C50.4207 119.4 50.7141 119.533 51.1141 119.48C51.5141 119.453 51.9407 119.213 52.3941 118.76C52.8741 118.28 53.3541 117.693 53.8341 117C54.3407 116.307 54.8474 115.547 55.3541 114.72C55.8607 113.867 56.3674 113.027 56.8741 112.2C57.3007 111.533 57.7141 111.08 58.1141 110.84C58.5141 110.6 58.8341 110.533 59.0741 110.64C59.3141 110.747 59.4474 111.013 59.4741 111.44C59.5274 111.84 59.4074 112.333 59.1141 112.92C58.8207 113.533 58.4207 114.28 57.9141 115.16C57.4341 116.013 56.9007 116.893 56.3141 117.8C55.7541 118.68 55.1674 119.52 54.5541 120.32C53.9407 121.093 53.3541 121.693 52.7941 122.12C52.2874 122.493 51.6741 122.787 50.9541 123C50.2607 123.187 49.5541 123.253 48.8341 123.2C48.1141 123.147 47.4207 122.96 46.7541 122.64C46.1141 122.293 45.5941 121.773 45.1941 121.08C44.8741 120.547 44.6341 119.92 44.4741 119.2C44.3141 118.453 44.2607 117.6 44.3141 116.64C43.6741 117.653 42.9407 118.64 42.1141 119.6C41.2874 120.56 40.4074 121.36 39.4741 122C38.7541 122.507 37.9541 122.893 37.0741 123.16C36.2207 123.427 35.3674 123.507 34.5141 123.4C33.6874 123.293 32.9141 122.96 32.1941 122.4C31.5007 121.84 30.9541 121 30.5541 119.88C30.2341 118.973 30.1407 117.973 30.2741 116.88C30.4074 115.787 30.7141 114.693 31.1941 113.6C31.6474 112.48 32.2607 111.4 33.0341 110.36C33.8074 109.293 34.6607 108.333 35.5941 107.48C36.5541 106.627 37.5807 105.907 38.6741 105.32C39.7674 104.707 40.8741 104.307 41.9941 104.12ZM37.9541 119.44C38.7541 119.013 39.5674 118.293 40.3941 117.28C41.2474 116.24 42.0474 115.147 42.7941 114C43.5407 112.827 44.2074 111.693 44.7941 110.6C45.4074 109.48 45.8741 108.6 46.1941 107.96C45.3674 107.853 44.5274 107.933 43.6741 108.2C42.8474 108.44 42.0341 108.813 41.2341 109.32C40.4607 109.827 39.7141 110.44 38.9941 111.16C38.3007 111.853 37.6874 112.6 37.1541 113.4C36.6207 114.173 36.1807 114.973 35.8341 115.8C35.4874 116.6 35.2874 117.36 35.2341 118.08C35.1541 118.987 35.3674 119.56 35.8741 119.8C36.4074 120.013 37.1007 119.893 37.9541 119.44ZM78.995 120.28C78.835 119.587 78.835 118.827 78.995 118C79.1817 117.173 79.4083 116.347 79.675 115.52C79.9683 114.667 80.275 113.84 80.595 113.04C80.915 112.213 81.155 111.48 81.315 110.84C81.5283 109.987 81.355 109.493 80.795 109.36C80.235 109.227 79.355 109.667 78.155 110.68C77.8883 110.893 77.4883 111.293 76.955 111.88C76.4483 112.467 75.8883 113.187 75.275 114.04C74.9017 115.507 74.475 116.947 73.995 118.36C73.515 119.773 73.0483 120.893 72.595 121.72C72.275 122.28 71.8217 122.693 71.235 122.96C70.675 123.227 70.1017 123.347 69.515 123.32C68.9283 123.32 68.395 123.173 67.915 122.88C67.4617 122.56 67.195 122.12 67.115 121.56C67.035 120.92 67.1417 120.133 67.435 119.2C67.7283 118.24 68.075 117.253 68.475 116.24C68.875 115.2 69.2617 114.2 69.635 113.24C70.0083 112.28 70.2217 111.48 70.275 110.84C70.3817 109.96 70.1817 109.467 69.675 109.36C69.1683 109.227 68.315 109.667 67.115 110.68C66.8217 110.92 66.3417 111.413 65.675 112.16C65.035 112.907 64.3417 113.813 63.595 114.88C62.875 115.947 62.1817 117.133 61.515 118.44C60.875 119.72 60.4217 121.027 60.155 122.36C60.1817 122.733 60.0083 123.04 59.635 123.28C59.2617 123.547 58.8083 123.667 58.275 123.64C57.7683 123.613 57.2617 123.413 56.755 123.04C56.2217 122.693 55.835 122.107 55.595 121.28C55.435 120.64 55.435 119.667 55.595 118.36C55.7283 117.053 55.9817 115.64 56.355 114.12C56.7017 112.573 57.1417 111.053 57.675 109.56C58.2083 108.067 58.7817 106.827 59.395 105.84C59.715 105.333 60.2217 105 60.915 104.84C61.6083 104.653 62.2883 104.627 62.955 104.76C63.6217 104.893 64.1417 105.16 64.515 105.56C64.915 105.933 64.9683 106.427 64.675 107.04C64.515 107.333 64.315 107.733 64.075 108.24C63.8617 108.747 63.6083 109.333 63.315 110C63.0483 110.64 62.7683 111.347 62.475 112.12C62.1817 112.867 61.9017 113.64 61.635 114.44C62.275 113.107 62.9817 111.867 63.755 110.72C64.555 109.573 65.4617 108.547 66.475 107.64C67.6217 106.627 68.7417 105.88 69.835 105.4C70.9283 104.92 71.915 104.68 72.795 104.68C73.675 104.68 74.4083 104.907 74.995 105.36C75.5817 105.813 75.9683 106.44 76.155 107.24C76.2083 107.453 76.235 107.707 76.235 108C76.235 108.267 76.2217 108.587 76.195 108.96C76.595 108.48 77.035 108.04 77.515 107.64C78.6617 106.627 79.7817 105.88 80.875 105.4C81.9683 104.92 82.955 104.68 83.835 104.68C84.715 104.68 85.4483 104.907 86.035 105.36C86.6217 105.813 87.0083 106.44 87.195 107.24C87.3283 107.88 87.315 108.64 87.155 109.52C86.995 110.373 86.755 111.267 86.435 112.2C86.115 113.107 85.7817 114.013 85.435 114.92C85.115 115.8 84.8483 116.587 84.635 117.28C84.4217 117.973 84.3283 118.533 84.355 118.96C84.4083 119.36 84.675 119.533 85.155 119.48C85.5817 119.453 86.0217 119.213 86.475 118.76C86.955 118.28 87.435 117.693 87.915 117C88.395 116.307 88.8883 115.547 89.395 114.72C89.9017 113.867 90.4083 113.027 90.915 112.2C91.3417 111.533 91.755 111.08 92.155 110.84C92.555 110.6 92.875 110.533 93.115 110.64C93.355 110.747 93.4883 111.013 93.515 111.44C93.5683 111.84 93.4483 112.333 93.155 112.92C92.8617 113.533 92.4883 114.253 92.035 115.08C91.6083 115.88 91.115 116.707 90.555 117.56C90.0217 118.413 89.435 119.24 88.795 120.04C88.155 120.813 87.5017 121.453 86.835 121.96C86.0617 122.52 85.2483 122.88 84.395 123.04C83.5683 123.227 82.7817 123.227 82.035 123.04C81.2883 122.88 80.635 122.56 80.075 122.08C79.515 121.6 79.155 121 78.995 120.28ZM111.378 112.2C111.805 111.533 112.218 111.08 112.618 110.84C113.018 110.6 113.338 110.533 113.578 110.64C113.818 110.747 113.952 111.013 113.978 111.44C114.032 111.84 113.912 112.333 113.618 112.92C113.325 113.533 112.925 114.213 112.418 114.96C111.912 115.68 111.325 116.413 110.658 117.16C110.018 117.907 109.285 118.64 108.458 119.36C107.658 120.053 106.805 120.667 105.898 121.2C104.485 122.053 102.965 122.6 101.338 122.84C99.7384 123.08 98.2184 123.053 96.7784 122.76C95.3384 122.44 94.0584 121.853 92.9384 121C91.8451 120.12 91.0984 119 90.6984 117.64C90.2718 116.2 90.2318 114.733 90.5784 113.24C90.8984 111.72 91.4984 110.307 92.3784 109C93.2584 107.693 94.3518 106.587 95.6584 105.68C96.9651 104.773 98.4051 104.2 99.9784 103.96C101.445 103.747 102.765 103.853 103.938 104.28C105.112 104.68 106.045 105.267 106.738 106.04C107.458 106.787 107.898 107.64 108.058 108.6C108.218 109.533 108.045 110.44 107.538 111.32C107.112 112.04 106.552 112.707 105.858 113.32C105.165 113.933 104.325 114.467 103.338 114.92C102.352 115.347 101.218 115.667 99.9384 115.88C98.6851 116.093 97.2851 116.147 95.7384 116.04C95.8184 117.053 96.1251 117.853 96.6584 118.44C97.2184 119.027 97.9118 119.427 98.7384 119.64C99.5651 119.853 100.472 119.907 101.458 119.8C102.445 119.667 103.405 119.4 104.338 119C105.485 118.52 106.685 117.68 107.938 116.48C109.218 115.28 110.365 113.853 111.378 112.2ZM103.778 107.2C103.245 106.907 102.592 106.907 101.818 107.2C101.045 107.467 100.272 107.92 99.4984 108.56C98.7251 109.2 98.0051 109.987 97.3384 110.92C96.6984 111.827 96.2451 112.773 95.9784 113.76C97.3384 113.707 98.5784 113.387 99.6984 112.8C100.845 112.187 101.792 111.507 102.538 110.76C103.285 110.013 103.778 109.293 104.018 108.6C104.285 107.907 104.205 107.44 103.778 107.2ZM153.687 91.12C153.714 91.6267 153.527 92.1067 153.127 92.56C152.727 93.0133 152.367 93.4 152.047 93.72C150.847 95 149.474 95.9867 147.927 96.68C146.407 97.3467 144.767 97.6267 143.007 97.52C142.154 97.8133 141.461 98.3333 140.927 99.08C140.421 99.8267 140.021 100.6 139.727 101.4C139.487 102.093 139.247 102.773 139.007 103.44C138.767 104.107 138.541 104.787 138.327 105.48C137.714 107.427 137.141 109.373 136.607 111.32C136.101 113.267 135.461 115.2 134.687 117.12C133.994 118.827 133.167 120.453 132.207 122C131.247 123.52 130.034 124.867 128.567 126.04C127.127 127.187 125.501 128.053 123.687 128.64C121.874 129.227 120.047 129.413 118.207 129.2C117.354 129.093 116.514 128.867 115.687 128.52C114.861 128.173 114.127 127.693 113.487 127.08C112.874 126.467 112.367 125.693 111.967 124.76C111.567 123.853 111.434 122.96 111.567 122.08C111.621 121.653 111.781 121.307 112.047 121.04C112.314 120.747 112.621 120.547 112.967 120.44C113.341 120.307 113.727 120.267 114.127 120.32C114.527 120.347 114.887 120.453 115.207 120.64C115.474 120.773 115.727 120.92 115.967 121.08C116.234 121.24 116.474 121.413 116.687 121.6C117.007 121.813 117.207 122.107 117.287 122.48C117.367 122.853 117.501 123.213 117.687 123.56C118.114 124.413 118.741 124.907 119.567 125.04C120.394 125.2 121.221 125.107 122.047 124.76C122.874 124.413 123.567 123.933 124.127 123.32C124.714 122.707 125.221 122.013 125.647 121.24C126.607 119.56 127.421 117.84 128.087 116.08C128.781 114.293 129.474 112.493 130.167 110.68C130.541 109.72 130.914 108.733 131.287 107.72C131.687 106.68 132.114 105.667 132.567 104.68C133.021 103.667 133.527 102.707 134.087 101.8C134.674 100.867 135.341 100.013 136.087 99.24C136.541 98.76 137.021 98.32 137.527 97.92C138.061 97.4933 138.621 97.12 139.207 96.8C138.087 96.4533 137.034 96.0133 136.047 95.48C135.087 94.9467 134.034 94.4 132.887 93.84C132.034 93.44 131.181 93.1867 130.327 93.08C129.501 92.9467 128.634 93.0267 127.727 93.32C126.794 93.6133 125.994 94.1067 125.327 94.8C124.661 95.4667 124.167 96.2533 123.847 97.16C123.554 97.9867 123.381 98.8267 123.327 99.68C123.274 100.533 123.274 101.387 123.327 102.24C123.381 102.933 123.181 103.533 122.727 104.04C122.301 104.52 121.741 104.773 121.047 104.8C120.274 104.8 119.674 104.693 119.247 104.48C118.821 104.267 118.501 103.973 118.287 103.6C118.101 103.2 117.981 102.733 117.927 102.2C117.901 101.64 117.901 101.013 117.927 100.32C118.034 98.4533 118.581 96.7467 119.567 95.2C120.554 93.6267 121.861 92.3867 123.487 91.48C125.087 90.6267 126.754 90.12 128.487 89.96C130.221 89.8 131.967 89.76 133.727 89.84C134.687 89.8933 135.594 90.0133 136.447 90.2C137.327 90.3867 138.194 90.6 139.047 90.84C139.901 91.08 140.754 91.32 141.607 91.56C142.461 91.7733 143.354 91.9467 144.287 92.08C145.727 92.32 147.114 92.16 148.447 91.6C148.901 91.3867 149.341 91.12 149.767 90.8C150.194 90.4533 150.634 90.2 151.087 90.04C151.301 89.96 151.554 89.92 151.847 89.92C152.141 89.92 152.421 89.96 152.687 90.04C152.954 90.12 153.181 90.2533 153.367 90.44C153.581 90.6267 153.687 90.8533 153.687 91.12ZM153.596 104.12C154.316 104.013 154.996 104.013 155.636 104.12C156.276 104.227 156.862 104.4 157.396 104.64C157.929 104.88 158.396 105.173 158.796 105.52C159.196 105.867 159.516 106.2 159.756 106.52C160.236 106.52 160.716 106.613 161.196 106.8C161.702 106.987 162.129 107.24 162.476 107.56C162.849 107.853 163.116 108.2 163.276 108.6C163.462 109 163.462 109.4 163.276 109.8C163.062 110.28 162.836 110.853 162.596 111.52C162.382 112.187 162.182 112.893 161.996 113.64C161.836 114.36 161.702 115.08 161.596 115.8C161.516 116.493 161.489 117.133 161.516 117.72C161.569 118.28 161.676 118.733 161.836 119.08C162.022 119.4 162.316 119.533 162.716 119.48C163.116 119.453 163.542 119.213 163.996 118.76C164.476 118.28 164.956 117.693 165.436 117C165.942 116.307 166.449 115.547 166.956 114.72C167.462 113.867 167.969 113.027 168.476 112.2C168.902 111.533 169.316 111.08 169.716 110.84C170.116 110.6 170.436 110.533 170.676 110.64C170.916 110.747 171.049 111.013 171.076 111.44C171.129 111.84 171.009 112.333 170.716 112.92C170.422 113.533 170.022 114.28 169.516 115.16C169.036 116.013 168.502 116.893 167.916 117.8C167.356 118.68 166.769 119.52 166.156 120.32C165.542 121.093 164.956 121.693 164.396 122.12C163.889 122.493 163.276 122.787 162.556 123C161.862 123.187 161.156 123.253 160.436 123.2C159.716 123.147 159.022 122.96 158.356 122.64C157.716 122.293 157.196 121.773 156.796 121.08C156.476 120.547 156.236 119.92 156.076 119.2C155.916 118.453 155.862 117.6 155.916 116.64C155.276 117.653 154.542 118.64 153.716 119.6C152.889 120.56 152.009 121.36 151.076 122C150.356 122.507 149.556 122.893 148.676 123.16C147.822 123.427 146.969 123.507 146.116 123.4C145.289 123.293 144.516 122.96 143.796 122.4C143.102 121.84 142.556 121 142.156 119.88C141.836 118.973 141.742 117.973 141.876 116.88C142.009 115.787 142.316 114.693 142.796 113.6C143.249 112.48 143.862 111.4 144.636 110.36C145.409 109.293 146.262 108.333 147.196 107.48C148.156 106.627 149.182 105.907 150.276 105.32C151.369 104.707 152.476 104.307 153.596 104.12ZM149.556 119.44C150.356 119.013 151.169 118.293 151.996 117.28C152.849 116.24 153.649 115.147 154.396 114C155.142 112.827 155.809 111.693 156.396 110.6C157.009 109.48 157.476 108.6 157.796 107.96C156.969 107.853 156.129 107.933 155.276 108.2C154.449 108.44 153.636 108.813 152.836 109.32C152.062 109.827 151.316 110.44 150.596 111.16C149.902 111.853 149.289 112.6 148.756 113.4C148.222 114.173 147.782 114.973 147.436 115.8C147.089 116.6 146.889 117.36 146.836 118.08C146.756 118.987 146.969 119.56 147.476 119.8C148.009 120.013 148.702 119.893 149.556 119.44ZM174.597 109.28C174.437 109.76 174.277 110.36 174.117 111.08C173.957 111.773 173.81 112.507 173.677 113.28C173.543 114.053 173.45 114.827 173.397 115.6C173.343 116.347 173.33 117.013 173.357 117.6C173.41 118.187 173.53 118.667 173.717 119.04C173.93 119.387 174.223 119.533 174.597 119.48C175.023 119.453 175.463 119.213 175.917 118.76C176.397 118.28 176.877 117.693 177.357 117C177.837 116.307 178.33 115.547 178.837 114.72C179.343 113.867 179.85 113.027 180.357 112.2C180.783 111.533 181.197 111.08 181.597 110.84C181.997 110.6 182.317 110.533 182.557 110.64C182.797 110.747 182.93 111.013 182.957 111.44C183.01 111.84 182.89 112.333 182.597 112.92C182.303 113.533 181.917 114.28 181.437 115.16C180.957 116.013 180.423 116.893 179.837 117.8C179.277 118.68 178.69 119.52 178.077 120.32C177.463 121.093 176.877 121.693 176.317 122.12C175.81 122.493 175.197 122.773 174.477 122.96C173.757 123.12 173.037 123.16 172.317 123.08C171.597 123 170.917 122.773 170.277 122.4C169.663 122.027 169.183 121.48 168.837 120.76C168.437 119.907 168.183 118.96 168.077 117.92C167.97 116.88 167.983 115.787 168.117 114.64C168.223 113.467 168.41 112.267 168.677 111.04C168.97 109.813 169.317 108.573 169.717 107.32C170.063 106.147 170.49 104.92 170.997 103.64C171.503 102.333 172.05 101.067 172.637 99.84C173.223 98.5867 173.85 97.4133 174.517 96.32C175.21 95.2267 175.917 94.2933 176.637 93.52C177.223 92.88 177.877 92.48 178.597 92.32C179.343 92.16 180.01 92.2 180.597 92.44C181.21 92.6533 181.677 93.0533 181.997 93.64C182.317 94.2 182.357 94.88 182.117 95.68C181.743 97.0667 180.957 98.7067 179.757 100.6C178.583 102.493 177.117 104.533 175.357 106.72L174.597 109.28ZM183.872 122.36C183.898 122.733 183.725 123.04 183.352 123.28C182.978 123.547 182.525 123.667 181.992 123.64C181.485 123.613 180.978 123.413 180.472 123.04C179.965 122.693 179.592 122.107 179.352 121.28C179.138 120.507 179.098 119.44 179.232 118.08C179.338 116.693 179.592 115.147 179.992 113.44C180.392 111.733 180.912 109.947 181.552 108.08C182.218 106.187 182.978 104.347 183.832 102.56C184.685 100.747 185.618 99.0533 186.632 97.48C187.645 95.9067 188.712 94.5867 189.832 93.52C190.472 92.9067 191.152 92.5333 191.872 92.4C192.618 92.24 193.285 92.2667 193.872 92.48C194.458 92.6933 194.898 93.08 195.192 93.64C195.512 94.2 195.565 94.88 195.352 95.68C194.898 97.2 193.992 99.0133 192.632 101.12C191.298 103.2 189.605 105.453 187.552 107.88C187.498 108.013 187.445 108.147 187.392 108.28C187.338 108.413 187.285 108.547 187.232 108.68C188.378 107.587 189.565 106.693 190.792 106C192.045 105.307 193.232 104.84 194.352 104.6C195.498 104.333 196.512 104.32 197.392 104.56C198.298 104.8 198.978 105.32 199.432 106.12C199.832 106.867 199.992 107.667 199.912 108.52C199.858 109.347 199.565 110.173 199.032 111C198.498 111.8 197.725 112.573 196.712 113.32C195.698 114.067 194.445 114.72 192.952 115.28C193.085 115.333 193.205 115.4 193.312 115.48C193.418 115.533 193.525 115.587 193.632 115.64C194.165 116.013 194.552 116.427 194.792 116.88C195.032 117.307 195.218 117.707 195.352 118.08C195.485 118.453 195.632 118.773 195.792 119.04C195.952 119.307 196.218 119.453 196.592 119.48C196.992 119.533 197.418 119.333 197.872 118.88C198.352 118.427 198.832 117.84 199.312 117.12C199.818 116.4 200.325 115.613 200.832 114.76C201.338 113.88 201.845 113.027 202.352 112.2C202.778 111.533 203.192 111.08 203.592 110.84C203.992 110.6 204.312 110.533 204.552 110.64C204.792 110.747 204.925 111.013 204.952 111.44C205.005 111.84 204.885 112.333 204.592 112.92C204.298 113.533 203.925 114.253 203.472 115.08C203.018 115.88 202.512 116.707 201.952 117.56C201.418 118.413 200.832 119.24 200.192 120.04C199.578 120.813 198.938 121.453 198.272 121.96C197.498 122.52 196.685 122.88 195.832 123.04C195.005 123.227 194.205 123.227 193.432 123.04C192.685 122.88 192.032 122.56 191.472 122.08C190.938 121.6 190.592 121 190.432 120.28C190.032 118.6 189.338 117.333 188.352 116.48C187.765 116.587 187.152 116.667 186.512 116.72C185.898 116.773 185.245 116.827 184.552 116.88C183.965 119.227 183.738 121.053 183.872 122.36ZM193.872 109C193.658 108.493 193.205 108.32 192.512 108.48C191.845 108.613 191.085 108.973 190.232 109.56C189.378 110.147 188.498 110.907 187.592 111.84C186.712 112.747 185.952 113.693 185.312 114.68C186.858 114.547 188.218 114.267 189.392 113.84C190.565 113.387 191.512 112.88 192.232 112.32C192.952 111.76 193.445 111.187 193.712 110.6C194.005 109.987 194.058 109.453 193.872 109Z" fill="white"/>
<ellipse cx="101.398" cy="37.1036" rx="37.3646" ry="37.1036" fill="white"/>
<g opacity="0.1" filter="url(#filter0_d_518_2)">
<path d="M112.168 25.9377C115.706 25.988 118.475 27.3051 120.475 29.8891C122.475 32.4551 123.442 36.0073 123.377 40.5455C123.317 44.7263 122.477 48.4136 120.858 51.6073L113.14 51.4975C114.357 48.87 115.22 46.6484 115.729 44.8329C116.238 42.9994 116.503 41.3234 116.525 39.8047C116.551 37.9823 116.223 36.5837 115.54 35.609C114.858 34.6164 113.828 34.1103 112.453 34.0907C111.684 34.0798 111.002 34.2845 110.407 34.705C109.793 35.1251 109.203 35.7511 108.637 36.583C108.071 37.397 107.163 39.0729 105.911 41.6105C104.751 43.9887 103.644 45.7689 102.59 46.9513C101.537 48.1336 100.317 49.0724 98.9308 49.7675C97.5447 50.4626 95.9316 50.797 94.0913 50.7709C90.6251 50.7216 87.9172 49.5125 85.9678 47.1438C84.0186 44.7571 83.0738 41.4912 83.1336 37.3461C83.163 35.3093 83.4322 33.3742 83.9411 31.5407C84.4503 29.6894 85.1572 27.7605 86.0619 25.754L92.4821 28.5259C91.5943 30.6042 90.9708 32.3287 90.6115 33.6997C90.2524 35.0527 90.0634 36.3903 90.0443 37.7125C90.0216 39.2848 90.3705 40.496 91.0909 41.3461C91.8113 42.1963 92.7612 42.6298 93.9404 42.6465C94.6729 42.657 95.3186 42.4964 95.8774 42.1648C96.4183 41.8329 96.9531 41.3044 97.4818 40.5793C97.9929 39.836 98.9295 38.089 100.292 35.3385C102.095 31.7007 103.891 29.2154 105.68 27.8827C107.45 26.5497 109.613 25.9014 112.168 25.9377Z" fill="url(#paint0_linear_518_2)"/>
</g>
<g filter="url(#filter1_d_518_2)">
<path d="M111.118 24.2896C114.656 24.2896 117.443 25.5673 119.481 28.1225C121.518 30.6599 122.536 34.1979 122.536 38.7365C122.536 42.9178 121.75 46.6167 120.177 49.833L112.458 49.833C113.637 47.1885 114.468 44.9549 114.951 43.1323C115.433 41.2918 115.674 39.6121 115.674 38.0933C115.674 36.2706 115.326 34.8769 114.629 33.912C113.932 32.9292 112.896 32.4378 111.52 32.4378C110.752 32.4378 110.073 32.6522 109.483 33.0811C108.875 33.5099 108.295 34.1443 107.741 34.9841C107.187 35.8061 106.302 37.4947 105.087 40.0499C103.961 42.4443 102.88 44.2401 101.844 45.4373C100.808 46.6345 99.6015 47.5905 98.2256 48.3053C96.8497 49.02 95.2415 49.3774 93.401 49.3774C89.9345 49.3774 87.2095 48.207 85.2261 45.8662C83.2426 43.5075 82.2509 40.2554 82.2509 36.1098C82.2509 34.0728 82.4922 32.134 82.9746 30.2935C83.4571 28.4352 84.1361 26.4964 85.0117 24.4773L91.4712 27.1576C90.6135 29.2482 90.0149 30.9815 89.6754 32.3574C89.3359 33.7154 89.1661 35.0556 89.1661 36.3779C89.1661 37.9503 89.5325 39.1565 90.2651 39.9963C90.9977 40.8361 91.9537 41.256 93.133 41.256C93.8656 41.256 94.5089 41.0863 95.0628 40.7468C95.5989 40.4073 96.126 39.8712 96.6442 39.1386C97.1445 38.3881 98.0559 36.628 99.3781 33.8584C101.129 30.1953 102.889 27.6847 104.658 26.3267C106.41 24.9687 108.563 24.2896 111.118 24.2896Z" fill="url(#paint1_linear_518_2)"/>
</g>
<path d="M29.0566 153H27.3281V148.005C27.3281 147.385 27.2109 146.923 26.9766 146.621C26.7422 146.313 26.376 146.159 25.8779 146.159C25.2139 146.159 24.7256 146.376 24.4131 146.811C24.1055 147.241 23.9517 147.958 23.9517 148.964V153H22.2305V144.899H23.5781L23.8198 145.961H23.9077C24.1323 145.576 24.457 145.278 24.8818 145.068C25.3115 144.858 25.7827 144.753 26.2954 144.753C27.5405 144.753 28.3657 145.178 28.771 146.027H28.8882C29.1274 145.627 29.4644 145.314 29.8989 145.09C30.3335 144.865 30.8315 144.753 31.3931 144.753C32.3599 144.753 33.063 144.997 33.5024 145.485C33.9468 145.974 34.1689 146.718 34.1689 147.719V153H32.4478V148.005C32.4478 147.385 32.3281 146.923 32.0889 146.621C31.8545 146.313 31.4883 146.159 30.9902 146.159C30.3213 146.159 29.8306 146.369 29.5181 146.789C29.2104 147.204 29.0566 147.844 29.0566 148.708V153ZM40.1089 153.146C38.8491 153.146 37.8628 152.78 37.1499 152.048C36.4419 151.311 36.0879 150.297 36.0879 149.008C36.0879 147.685 36.4175 146.645 37.0767 145.888C37.7358 145.131 38.6416 144.753 39.7939 144.753C40.8633 144.753 41.708 145.078 42.3281 145.727C42.9482 146.376 43.2583 147.27 43.2583 148.408V149.338H37.8604C37.8848 150.124 38.0972 150.729 38.4976 151.154C38.8979 151.574 39.4619 151.784 40.1895 151.784C40.668 151.784 41.1123 151.74 41.5225 151.652C41.9375 151.56 42.3818 151.408 42.8555 151.198V152.597C42.4355 152.797 42.0107 152.939 41.5811 153.022C41.1514 153.105 40.6606 153.146 40.1089 153.146ZM39.7939 146.057C39.2471 146.057 38.8076 146.23 38.4756 146.577C38.1484 146.923 37.9531 147.429 37.8896 148.093H41.5664C41.5566 147.424 41.3955 146.918 41.083 146.577C40.7705 146.23 40.3408 146.057 39.7939 146.057ZM52.3403 153H50.6118V148.02C50.6118 147.395 50.4849 146.928 50.231 146.621C49.9819 146.313 49.584 146.159 49.0371 146.159C48.3096 146.159 47.7773 146.374 47.4404 146.804C47.1035 147.233 46.9351 147.954 46.9351 148.964V153H45.2139V144.899H46.5615L46.8032 145.961H46.8911C47.1353 145.576 47.4819 145.278 47.9312 145.068C48.3804 144.858 48.8784 144.753 49.4253 144.753C51.3687 144.753 52.3403 145.742 52.3403 147.719V153ZM57.7529 151.755C58.1729 151.755 58.5928 151.689 59.0127 151.557V152.854C58.8223 152.937 58.5757 153.005 58.2729 153.059C57.9751 153.117 57.665 153.146 57.3428 153.146C55.7119 153.146 54.8965 152.287 54.8965 150.568V146.203H53.7905V145.441L54.9771 144.812L55.563 143.098H56.625V144.899H58.9321V146.203H56.625V150.539C56.625 150.954 56.7275 151.262 56.9326 151.462C57.1426 151.657 57.416 151.755 57.7529 151.755ZM65.707 153L65.3628 151.872H65.3042C64.9136 152.365 64.5205 152.702 64.125 152.883C63.7295 153.059 63.2217 153.146 62.6016 153.146C61.8057 153.146 61.1831 152.932 60.7339 152.502C60.2896 152.072 60.0674 151.464 60.0674 150.678C60.0674 149.843 60.3774 149.213 60.9976 148.789C61.6177 148.364 62.5625 148.132 63.832 148.093L65.231 148.049V147.617C65.231 147.099 65.1089 146.713 64.8647 146.459C64.6255 146.201 64.252 146.071 63.7441 146.071C63.3291 146.071 62.9312 146.132 62.5503 146.254C62.1694 146.376 61.8032 146.521 61.4517 146.687L60.895 145.456C61.3345 145.227 61.8154 145.053 62.3379 144.936C62.8604 144.814 63.3535 144.753 63.8174 144.753C64.8477 144.753 65.624 144.978 66.1465 145.427C66.6738 145.876 66.9375 146.582 66.9375 147.543V153H65.707ZM63.1436 151.828C63.7686 151.828 64.269 151.655 64.645 151.308C65.0259 150.957 65.2163 150.466 65.2163 149.836V149.133L64.1763 149.177C63.3657 149.206 62.7749 149.343 62.4038 149.587C62.0376 149.826 61.8545 150.195 61.8545 150.693C61.8545 151.054 61.9619 151.335 62.1768 151.535C62.3916 151.73 62.7139 151.828 63.1436 151.828ZM71.061 153H69.3398V141.604H71.061V153ZM84.5522 153H82.8237V148.02C82.8237 147.395 82.6968 146.928 82.4429 146.621C82.1938 146.313 81.7959 146.159 81.249 146.159C80.5264 146.159 79.9941 146.376 79.6523 146.811C79.3154 147.241 79.147 147.963 79.147 148.979V153H77.4258V141.604H79.147V144.497C79.147 144.96 79.1177 145.456 79.0591 145.983H79.1689C79.4033 145.593 79.728 145.29 80.1431 145.075C80.563 144.86 81.0513 144.753 81.6079 144.753C83.5708 144.753 84.5522 145.742 84.5522 147.719V153ZM90.4849 153.146C89.2251 153.146 88.2388 152.78 87.5259 152.048C86.8179 151.311 86.4639 150.297 86.4639 149.008C86.4639 147.685 86.7935 146.645 87.4526 145.888C88.1118 145.131 89.0176 144.753 90.1699 144.753C91.2393 144.753 92.084 145.078 92.7041 145.727C93.3242 146.376 93.6343 147.27 93.6343 148.408V149.338H88.2363C88.2607 150.124 88.4731 150.729 88.8735 151.154C89.2739 151.574 89.8379 151.784 90.5654 151.784C91.0439 151.784 91.4883 151.74 91.8984 151.652C92.3135 151.56 92.7578 151.408 93.2314 151.198V152.597C92.8115 152.797 92.3867 152.939 91.957 153.022C91.5273 153.105 91.0366 153.146 90.4849 153.146ZM90.1699 146.057C89.623 146.057 89.1836 146.23 88.8516 146.577C88.5244 146.923 88.3291 147.429 88.2656 148.093H91.9424C91.9326 147.424 91.7715 146.918 91.459 146.577C91.1465 146.23 90.7168 146.057 90.1699 146.057ZM100.658 153L100.314 151.872H100.255C99.8647 152.365 99.4717 152.702 99.0762 152.883C98.6807 153.059 98.1729 153.146 97.5527 153.146C96.7568 153.146 96.1343 152.932 95.6851 152.502C95.2407 152.072 95.0186 151.464 95.0186 150.678C95.0186 149.843 95.3286 149.213 95.9487 148.789C96.5688 148.364 97.5137 148.132 98.7832 148.093L100.182 148.049V147.617C100.182 147.099 100.06 146.713 99.8159 146.459C99.5767 146.201 99.2031 146.071 98.6953 146.071C98.2803 146.071 97.8823 146.132 97.5015 146.254C97.1206 146.376 96.7544 146.521 96.4028 146.687L95.8462 145.456C96.2856 145.227 96.7666 145.053 97.2891 144.936C97.8115 144.814 98.3047 144.753 98.7686 144.753C99.7988 144.753 100.575 144.978 101.098 145.427C101.625 145.876 101.889 146.582 101.889 147.543V153H100.658ZM98.0947 151.828C98.7197 151.828 99.2202 151.655 99.5962 151.308C99.9771 150.957 100.167 150.466 100.167 149.836V149.133L99.1274 149.177C98.3169 149.206 97.7261 149.343 97.355 149.587C96.9888 149.826 96.8057 150.195 96.8057 150.693C96.8057 151.054 96.9131 151.335 97.1279 151.535C97.3428 151.73 97.665 151.828 98.0947 151.828ZM106.012 153H104.291V141.604H106.012V153ZM111.498 151.755C111.918 151.755 112.338 151.689 112.758 151.557V152.854C112.567 152.937 112.321 153.005 112.018 153.059C111.72 153.117 111.41 153.146 111.088 153.146C109.457 153.146 108.642 152.287 108.642 150.568V146.203H107.536V145.441L108.722 144.812L109.308 143.098H110.37V144.899H112.677V146.203H110.37V150.539C110.37 150.954 110.473 151.262 110.678 151.462C110.888 151.657 111.161 151.755 111.498 151.755ZM121.51 153H119.782V148.02C119.782 147.395 119.655 146.928 119.401 146.621C119.152 146.313 118.754 146.159 118.207 146.159C117.484 146.159 116.952 146.376 116.61 146.811C116.273 147.241 116.105 147.963 116.105 148.979V153H114.384V141.604H116.105V144.497C116.105 144.96 116.076 145.456 116.017 145.983H116.127C116.361 145.593 116.686 145.29 117.101 145.075C117.521 144.86 118.009 144.753 118.566 144.753C120.529 144.753 121.51 145.742 121.51 147.719V153ZM134.628 153H132.899V148.005C132.899 147.385 132.782 146.923 132.548 146.621C132.313 146.313 131.947 146.159 131.449 146.159C130.785 146.159 130.297 146.376 129.984 146.811C129.677 147.241 129.523 147.958 129.523 148.964V153H127.802V144.899H129.149L129.391 145.961H129.479C129.704 145.576 130.028 145.278 130.453 145.068C130.883 144.858 131.354 144.753 131.867 144.753C133.112 144.753 133.937 145.178 134.342 146.027H134.459C134.699 145.627 135.036 145.314 135.47 145.09C135.905 144.865 136.403 144.753 136.964 144.753C137.931 144.753 138.634 144.997 139.074 145.485C139.518 145.974 139.74 146.718 139.74 147.719V153H138.019V148.005C138.019 147.385 137.899 146.923 137.66 146.621C137.426 146.313 137.06 146.159 136.562 146.159C135.893 146.159 135.402 146.369 135.089 146.789C134.782 147.204 134.628 147.844 134.628 148.708V153ZM147.211 153L146.867 151.872H146.808C146.417 152.365 146.024 152.702 145.629 152.883C145.233 153.059 144.726 153.146 144.105 153.146C143.31 153.146 142.687 152.932 142.238 152.502C141.793 152.072 141.571 151.464 141.571 150.678C141.571 149.843 141.881 149.213 142.501 148.789C143.122 148.364 144.066 148.132 145.336 148.093L146.735 148.049V147.617C146.735 147.099 146.613 146.713 146.369 146.459C146.129 146.201 145.756 146.071 145.248 146.071C144.833 146.071 144.435 146.132 144.054 146.254C143.673 146.376 143.307 146.521 142.956 146.687L142.399 145.456C142.838 145.227 143.319 145.053 143.842 144.936C144.364 144.814 144.857 144.753 145.321 144.753C146.352 144.753 147.128 144.978 147.65 145.427C148.178 145.876 148.441 146.582 148.441 147.543V153H147.211ZM144.647 151.828C145.272 151.828 145.773 151.655 146.149 151.308C146.53 150.957 146.72 150.466 146.72 149.836V149.133L145.68 149.177C144.87 149.206 144.279 149.343 143.908 149.587C143.542 149.826 143.358 150.195 143.358 150.693C143.358 151.054 143.466 151.335 143.681 151.535C143.896 151.73 144.218 151.828 144.647 151.828ZM153.861 151.755C154.281 151.755 154.701 151.689 155.121 151.557V152.854C154.931 152.937 154.684 153.005 154.381 153.059C154.083 153.117 153.773 153.146 153.451 153.146C151.82 153.146 151.005 152.287 151.005 150.568V146.203H149.899V145.441L151.085 144.812L151.671 143.098H152.733V144.899H155.041V146.203H152.733V150.539C152.733 150.954 152.836 151.262 153.041 151.462C153.251 151.657 153.524 151.755 153.861 151.755ZM159.765 151.755C160.185 151.755 160.604 151.689 161.024 151.557V152.854C160.834 152.937 160.587 153.005 160.285 153.059C159.987 153.117 159.677 153.146 159.354 153.146C157.724 153.146 156.908 152.287 156.908 150.568V146.203H155.802V145.441L156.989 144.812L157.575 143.098H158.637V144.899H160.944V146.203H158.637V150.539C158.637 150.954 158.739 151.262 158.944 151.462C159.154 151.657 159.428 151.755 159.765 151.755ZM166.188 153.146C164.928 153.146 163.942 152.78 163.229 152.048C162.521 151.311 162.167 150.297 162.167 149.008C162.167 147.685 162.497 146.645 163.156 145.888C163.815 145.131 164.721 144.753 165.873 144.753C166.942 144.753 167.787 145.078 168.407 145.727C169.027 146.376 169.337 147.27 169.337 148.408V149.338H163.939C163.964 150.124 164.176 150.729 164.577 151.154C164.977 151.574 165.541 151.784 166.269 151.784C166.747 151.784 167.191 151.74 167.602 151.652C168.017 151.56 168.461 151.408 168.935 151.198V152.597C168.515 152.797 168.09 152.939 167.66 153.022C167.23 153.105 166.74 153.146 166.188 153.146ZM165.873 146.057C165.326 146.057 164.887 146.23 164.555 146.577C164.228 146.923 164.032 147.429 163.969 148.093H167.646C167.636 147.424 167.475 146.918 167.162 146.577C166.85 146.23 166.42 146.057 165.873 146.057ZM175.402 144.753C175.749 144.753 176.034 144.777 176.259 144.826L176.09 146.43C175.846 146.372 175.592 146.342 175.329 146.342C174.64 146.342 174.081 146.567 173.651 147.016C173.227 147.465 173.014 148.049 173.014 148.767V153H171.293V144.899H172.641L172.868 146.328H172.956C173.224 145.844 173.573 145.461 174.003 145.178C174.438 144.895 174.904 144.753 175.402 144.753ZM183.209 150.693C183.209 151.484 182.921 152.092 182.345 152.517C181.769 152.937 180.944 153.146 179.87 153.146C178.791 153.146 177.924 152.983 177.27 152.656V151.169C178.222 151.608 179.108 151.828 179.928 151.828C180.988 151.828 181.518 151.508 181.518 150.869C181.518 150.664 181.459 150.493 181.342 150.356C181.225 150.219 181.032 150.078 180.763 149.931C180.495 149.785 180.121 149.619 179.643 149.433C178.71 149.072 178.078 148.71 177.746 148.349C177.418 147.988 177.255 147.519 177.255 146.943C177.255 146.25 177.533 145.712 178.09 145.332C178.651 144.946 179.413 144.753 180.375 144.753C181.327 144.753 182.228 144.946 183.078 145.332L182.521 146.628C181.647 146.267 180.912 146.086 180.316 146.086C179.408 146.086 178.954 146.345 178.954 146.862C178.954 147.116 179.071 147.331 179.306 147.507C179.545 147.683 180.062 147.924 180.858 148.232C181.527 148.491 182.013 148.728 182.316 148.942C182.619 149.157 182.843 149.406 182.99 149.689C183.136 149.968 183.209 150.302 183.209 150.693Z" fill="white"/>
<defs>
<filter id="filter0_d_518_2" x="76.4777" y="19.7149" width="53.5655" height="39.0297" filterUnits="userSpaceOnUse" color-interpolation-filters="sRGB">
<feFlood flood-opacity="0" result="BackgroundImageFix"/>
<feColorMatrix in="SourceAlpha" type="matrix" values="0 0 0 0 0 0 0 0 0 0 0 0 0 0 0 0 0 0 127 0" result="hardAlpha"/>
<feOffset dy="0.645798"/>
<feGaussianBlur stdDeviation="3.22899"/>
<feColorMatrix type="matrix" values="0 0 0 0 0.319497 0 0 0 0 0.34655 0 0 0 0 0.995833 0 0 0 0.6 0"/>
<feBlend mode="normal" in2="BackgroundImageFix" result="effect1_dropShadow_518_2"/>
<feBlend mode="normal" in="SourceGraphic" in2="effect1_dropShadow_518_2" result="shape"/>
</filter>
<filter id="filter1_d_518_2" x="75.793" y="18.4775" width="53.201" height="38.4593" filterUnits="userSpaceOnUse" color-interpolation-filters="sRGB">
<feFlood flood-opacity="0" result="BackgroundImageFix"/>
<feColorMatrix in="SourceAlpha" type="matrix" values="0 0 0 0 0 0 0 0 0 0 0 0 0 0 0 0 0 0 127 0" result="hardAlpha"/>
<feOffset dy="0.645798"/>
<feGaussianBlur stdDeviation="3.22899"/>
<feColorMatrix type="matrix" values="0 0 0 0 0.319497 0 0 0 0 0.34655 0 0 0 0 0.995833 0 0 0 0.6 0"/>
<feBlend mode="normal" in2="BackgroundImageFix" result="effect1_dropShadow_518_2"/>
<feBlend mode="normal" in="SourceGraphic" in2="effect1_dropShadow_518_2" result="shape"/>
</filter>
<linearGradient id="paint0_linear_518_2" x1="63.8693" y1="38.1387" x2="141.739" y2="39.2618" gradientUnits="userSpaceOnUse">
<stop offset="0.221983" stop-color="#F12B93"/>
<stop offset="0.407328" stop-color="#C52DE5" stop-opacity="0.744792"/>
<stop offset="0.657328" stop-color="#732FFD" stop-opacity="0.8"/>
<stop offset="0.797414" stop-color="#17B2F8"/>
</linearGradient>
<linearGradient id="paint1_linear_518_2" x1="63" y1="37.1763" x2="140.878" y2="37.1763" gradientUnits="userSpaceOnUse">
<stop offset="0.221983" stop-color="#F12B93"/>
<stop offset="0.407328" stop-color="#C52DE5" stop-opacity="0.744792"/>
<stop offset="0.657328" stop-color="#732FFD" stop-opacity="0.8"/>
<stop offset="0.797414" stop-color="#17B2F8"/>
</linearGradient>
</defs>
</svg>
